<?xml version="1.0" encoding="UTF-8" standalone="no"?>
<svg
   width="256"
   height="256"
   fill="currentColor"
   class="bi bi-person-bounding-box"
   viewBox="0 0 256 256"
   version="1.1"
   id="svg6"
   sodipodi:docname="profile.svg"
   inkscape:version="1.2 (dc2aedaf03, 2022-05-15)"
   xmlns:inkscape="http://www.inkscape.org/namespaces/inkscape"
   xmlns:sodipodi="http://sodipodi.sourceforge.net/DTD/sodipodi-0.dtd"
   xmlns="http://www.w3.org/2000/svg"
   xmlns:svg="http://www.w3.org/2000/svg">
  <defs
     id="defs10" />
  <sodipodi:namedview
     id="namedview8"
     pagecolor="#ffffff"
     bordercolor="#000000"
     borderopacity="0.25"
     inkscape:showpageshadow="2"
     inkscape:pageopacity="0.0"
     inkscape:pagecheckerboard="0"
     inkscape:deskcolor="#d1d1d1"
     showgrid="false"
     inkscape:zoom="1.5273438"
     inkscape:cx="8.8388747"
     inkscape:cy="48.450128"
     inkscape:window-width="1920"
     inkscape:window-height="1011"
     inkscape:window-x="0"
     inkscape:window-y="0"
     inkscape:window-maximized="1"
     inkscape:current-layer="svg6" />
  <g
     id="g172"
     transform="matrix(15.625,0,0,15.625,3,3)">
    <path
       d="M 1.5,1 A 0.5,0.5 0 0 0 1,1.5 v 3 a 0.5,0.5 0 0 1 -1,0 v -3 A 1.5,1.5 0 0 1 1.5,0 h 3 a 0.5,0.5 0 0 1 0,1 z M 11,0.5 A 0.5,0.5 0 0 1 11.5,0 h 3 A 1.5,1.5 0 0 1 16,1.5 v 3 a 0.5,0.5 0 0 1 -1,0 v -3 A 0.5,0.5 0 0 0 14.5,1 h -3 A 0.5,0.5 0 0 1 11,0.5 Z M 0.5,11 A 0.5,0.5 0 0 1 1,11.5 v 3 A 0.5,0.5 0 0 0 1.5,15 h 3 a 0.5,0.5 0 0 1 0,1 h -3 A 1.5,1.5 0 0 1 0,14.5 v -3 A 0.5,0.5 0 0 1 0.5,11 Z m 15,0 a 0.5,0.5 0 0 1 0.5,0.5 v 3 A 1.5,1.5 0 0 1 14.5,16 h -3 a 0.5,0.5 0 0 1 0,-1 h 3 A 0.5,0.5 0 0 0 15,14.5 v -3 A 0.5,0.5 0 0 1 15.5,11 Z"
       id="path2" />
    <path
       d="M 3,14 C 3,14 2,14 2,13 2,12 3,8.9999998 8,8.9999998 13,8.9999998 14,12 14,13 c 0,1 -1,1 -1,1 z m 8,-9 a 3,3 0 1 1 -6,0 3,3 0 0 1 6,0 z"
       id="path4"
       style="stroke-width:0.999998" />
  </g>
</svg>
